<svg xmlns="http://www.w3.org/2000/svg" width="26" height="26" viewBox="0 0 26 26">
    <defs>
        <linearGradient id="a" x1="100%" x2="0%" y1="50%" y2="50%">
            <stop offset="0%" stop-color="#7E00E8"/>
            <stop offset="54.172%" stop-color="#FF1876"/>
            <stop offset="100%" stop-color="#BB0CB2"/>
        </linearGradient>
    </defs>
    <path fill="url(#a)" fill-rule="evenodd" d="M.094 13.587l5.134 2.934c.066.066.133.066.266.066.2 0 .334-.066.467-.266.133-.267.067-.534-.2-.667l-4.4-2.533 4.4-2.534c.267-.133.333-.466.2-.666-.133-.267-.467-.334-.667-.2L.161 12.654l-.067.067-.066.066v.4c-.067.267 0 .334.066.4zm25.267-.466v-.2l-.067-.067-.066-.067-5.134-2.933c-.266-.133-.533-.067-.666.2-.134.267-.067.533.2.667l4.4 2.533-4.4 2.533c-.267.134-.334.467-.2.667.066.133.266.267.466.267.067 0 .2 0 .267-.067l5.133-2.933.2-.2v-.134c-.133-.2-.133-.2-.133-.266zm-3.267-13c-.2-.2-.533-.134-.666.066l-18.4 24.4c-.134.2-.134.534.066.667a.51.51 0 0 0 .334.133c.133 0 .333-.066.4-.2l18.4-24.4c.133-.2.133-.466-.134-.666z"/>
</svg>
