<svg xmlns="http://www.w3.org/2000/svg" width="21" height="16" viewBox="0 0 21 16">
    <defs>
        <radialGradient id="a" cx="79.99%" cy="76.55%" r="79.049%" fx="79.99%" fy="76.55%">
            <stop offset="0%" stop-color="#7E00E8"/>
            <stop offset="40.161%" stop-color="#FF1876"/>
            <stop offset="100%" stop-color="#BB0CB2"/>
        </radialGradient>
    </defs>
    <path fill="url(#a)" fill-rule="evenodd" d="M35.814 10.584h12.77c.05 0 .1 0 .149-.05h.05c.05 0 .05-.05.05-.05s0-.05.049-.05l.05-.049v-.05-.05l1.49-7.254v-.05-.05-.099s0-.05-.05-.05c0 0 0-.05-.049-.05l-.05-.049-.05-.05s-.05 0-.05-.05h-.099-15.503L34.075.299v-.05c0-.05 0-.05-.05-.05 0 0 0-.049-.05-.049l-.05-.05-.05-.05s-.049 0-.049-.049h-.1H30.398A.392.392 0 0 0 30 .398c0 .248.15.397.398.397h2.98l1.939 9.143a1.925 1.925 0 0 0-1.49 1.888 1.94 1.94 0 0 0 1.937 1.938h.944c-.149.199-.199.447-.199.745 0 .845.646 1.491 1.491 1.491.845 0 1.49-.646 1.49-1.49 0-.25-.099-.547-.198-.746h5.714c-.149.199-.199.447-.199.745 0 .845.646 1.491 1.491 1.491.845 0 1.49-.646 1.49-1.49 0-.25-.099-.547-.198-.746h.944c.199 0 .398-.15.398-.398 0-.248-.15-.397-.398-.397h-12.72a1.21 1.21 0 0 1-1.193-1.193 1.21 1.21 0 0 1 1.193-1.192zm8.993-7.255h4.82l-1.341 6.51H36.112l-1.392-6.51h10.087zm-6.012 11.13a.764.764 0 0 1-.745.746.764.764 0 0 1-.746-.745c0-.398.348-.746.746-.746.397 0 .745.348.745.746zm8.298 0a.764.764 0 0 1-.745.746.764.764 0 0 1-.746-.745c0-.398.348-.746.746-.746.397 0 .745.348.745.746z" transform="translate(-30)"/>
</svg>
